<svg width="201" height="200" viewBox="0 0 201 200" fill="none" xmlns="http://www.w3.org/2000/svg">
<path d="M68.2307 33.776L56.672 58.978C55.2427 62.0946 52.392 64.3253 49.0233 64.964L32.0107 68.188C25.3947 69.442 21.6173 76.474 24.224 82.682L33.3373 104.387C34.964 108.261 34.1447 112.731 31.2493 115.776L24.9967 122.353C18.84 128.828 22.9833 139.547 31.8947 140.199L86.26 144.173C89.286 144.395 92.0713 145.904 93.9086 148.318L112.311 172.494C117.57 179.402 128.451 177.388 130.889 169.055L135.807 152.241C137.715 145.719 145.187 142.66 151.121 145.971C158.731 150.219 167.925 143.961 166.767 135.323L165.348 124.75C164.77 120.442 166.885 116.219 170.681 114.101L173.503 112.527C181.821 107.886 180.253 95.4766 171.041 93.0513L153.539 88.4426C148.755 87.1833 145.483 82.778 145.657 77.8346L146.784 46.0106C147.089 37.38 137.487 32.0373 130.314 36.8473L109.915 50.5266C104.769 53.978 97.7713 52.2886 94.766 46.87L87.1046 33.0553C82.896 25.4673 71.8473 25.8893 68.2307 33.776Z" fill="#F2F7FF"/>
<path d="M70.2147 61.7166C74.348 54.7966 74.412 44.5113 73.67 36.8113L58.4647 34.564L45.5607 43.1893C45.9727 44.9306 47.2513 49.7593 49.7467 54.5813C53.7593 62.3373 58.8767 66.46 64.9587 66.8373C65.5753 66.5793 68.0347 65.3673 70.2147 61.7166Z" fill="white"/>
<path d="M75.676 35.7827L75.59 34.9734L57.97 32.3694L43.2126 42.2334L43.3493 42.9214C43.4 43.1767 44.6293 49.2447 47.86 55.5054C52.2286 63.9707 58.18 68.6194 65.0713 68.9474L65.2546 68.956L65.43 68.9021C65.5726 68.858 68.9653 67.7694 71.8893 63.0054C75.6633 56.8561 76.9373 47.6967 75.676 35.7827ZM49.7466 54.5814C47.2513 49.7594 45.9726 44.9301 45.5606 43.1894L58.464 34.5647L73.6693 36.8121C74.4113 44.512 74.3473 54.7967 70.214 61.7174C68.034 65.3674 65.5753 66.5801 64.958 66.8381C58.876 66.4601 53.7593 62.3374 49.7466 54.5814Z" fill="#0C0C0F"/>
<path d="M57.6013 62.1653C54.1707 62.1653 50.9667 61.782 48.224 61.0247C43.5187 59.7253 40.694 57.458 40.27 54.6413C39.8667 51.96 41.718 49.1273 45.482 46.664C45.7387 46.496 46.0827 46.568 46.2513 46.8247C46.4193 47.0813 46.3473 47.426 46.0907 47.594C42.7107 49.8053 41.034 52.2493 41.3687 54.476C41.718 56.798 44.3247 58.7947 48.5193 59.9533C52.9293 61.1713 58.5927 61.3873 64.4673 60.5613C73.196 59.334 80.726 56.008 83.6513 52.0867C84.598 50.8173 84.9873 49.5707 84.808 48.38C84.3913 45.6093 80.8167 43.3593 75.2453 42.36C74.9433 42.306 74.7427 42.0173 74.7967 41.7153C74.8507 41.4133 75.1407 41.2133 75.4413 41.2667C81.594 42.37 85.4087 44.9027 85.9073 48.2153C86.132 49.71 85.6727 51.236 84.542 52.7513C81.4487 56.898 73.6293 60.3953 64.622 61.662C62.2287 61.998 59.8653 62.1653 57.6013 62.1653Z" fill="#0C0C0F"/>
<path d="M50.768 69.8153C50.042 69.8153 49.3627 69.6446 48.7353 69.3046C44.8627 67.202 43.9833 60.1907 46.3827 50.5486C46.4567 50.2513 46.7573 50.0693 47.056 50.144C47.354 50.218 47.5353 50.5193 47.4607 50.8173C45.2253 59.8007 45.9167 66.5107 49.266 68.3287C50.1387 68.8027 51.178 68.8253 52.3547 68.3966C56.6227 66.8406 61.856 59.7693 65.378 50.8C70.0153 38.99 70.3933 27.0913 66.204 24.8173C65.3827 24.3713 64.4113 24.3246 63.3187 24.6793C59.6993 25.854 55.288 31.11 51.8067 38.396C51.674 38.6726 51.3427 38.79 51.066 38.658C50.7893 38.526 50.672 38.194 50.804 37.9173C54.4127 30.3653 59.0767 24.888 62.976 23.6226C64.37 23.1706 65.6347 23.244 66.734 23.8406C71.5513 26.456 71.41 38.4767 66.4113 51.206C62.7233 60.598 57.3553 67.7553 52.7347 69.44C52.0473 69.69 51.3907 69.8153 50.768 69.8153ZM62.532 122.685C65.686 125.765 68.5047 129.189 70.8747 132.973C72.0767 134.892 73.198 137.041 72.9933 139.297C72.7693 141.759 70.9627 143.846 68.832 145.102C63.628 148.171 56.7473 146.923 51.7073 143.592C46.6673 140.261 43.078 135.193 39.6567 130.213C36.9633 126.293 34.262 122.301 30.78 119.024C29.2873 117.619 21.882 112.835 23.494 110.223C25.664 106.56 35.734 105.723 43.9753 109.797C50.764 113.153 57.1387 117.418 62.532 122.685Z" fill="#0C0C0F"/>
<path d="M32.4253 112.575C32.57 112.304 32.9066 112.202 33.1773 112.347C44.8153 118.571 54.0126 127.058 59.6793 133.081C59.7106 133.114 59.74 133.147 59.7713 133.179C58.016 128.733 53.6266 119.677 45.5626 114.872C45.3133 114.723 45.232 114.401 45.38 114.153C45.5286 113.903 45.8506 113.822 46.0993 113.97C51.9946 117.483 55.9226 123.147 58.18 127.28C60.2453 131.062 61.306 134.213 61.6093 135.183C66.5353 140.677 69.2653 144.748 69.296 144.793C69.466 145.049 69.3973 145.393 69.142 145.564C69.14 145.565 69.1373 145.567 69.1353 145.569C68.8806 145.733 68.5406 145.663 68.372 145.41C68.3133 145.321 65.6646 141.395 60.848 136.021C60.8213 135.997 60.7966 135.97 60.7753 135.941C59.0013 133.965 56.9346 131.796 54.5986 129.551C53.2973 130.141 49.118 131.271 42.5506 125.861C42.3266 125.677 42.2946 125.346 42.4793 125.123C42.6633 124.899 42.9946 124.867 43.218 125.051C48.6966 129.564 52.3166 129.19 53.7493 128.744C48.1086 123.433 40.988 117.784 32.6553 113.327C32.382 113.182 32.28 112.845 32.4253 112.575Z" fill="white"/>
<path d="M66.462 61.7968C66.4506 57.4754 69.49 52.2188 73.246 50.0514L105.649 31.3528C107.539 30.2614 109.253 30.1601 110.491 30.8794L113.387 32.5694C113.39 32.5714 113.393 32.5734 113.397 32.5754L113.415 32.5861V32.5868C114.636 33.2968 115.393 34.8041 115.399 36.9508L115.365 123.035C115.377 127.351 112.337 132.613 108.581 134.781L76.1793 153.48C74.2886 154.571 72.576 154.671 71.3386 153.951L71.338 153.951L68.4126 152.245C67.1913 151.535 66.434 150.025 66.428 147.881L66.462 61.7968Z" fill="#0C0C0F"/>
<path d="M74.5427 153.265L83.114 148.317L103.095 136.788L108.387 133.733C112.16 131.556 114.484 127.531 114.485 123.175L114.497 36.3353C114.497 33.9893 111.959 32.5233 109.927 33.6953L103.007 37.6886C102.935 37.7299 102.871 37.7826 102.816 37.8439L97.8067 43.4919C97.752 43.5539 97.6873 43.6059 97.616 43.6473L87.464 49.5046C87.316 49.5899 87.1433 49.6233 86.974 49.5999L83.53 49.1166C83.3607 49.0926 83.188 49.1266 83.04 49.2119L76.7547 52.8393C72.93 55.0466 70.574 59.1266 70.5733 63.5419L70.5607 150.964C70.5587 153.009 72.7713 154.287 74.5427 153.265Z" fill="white"/>
<path d="M97.0213 42.8653L90.2707 46.7619C89.8987 46.9766 89.5973 46.8493 89.5973 46.4773C89.5973 46.1053 89.8987 45.6299 90.2707 45.4153L97.0213 41.5186C97.3933 41.3039 97.6947 41.4313 97.6947 41.8033C97.6947 42.1753 97.3933 42.6506 97.0213 42.8653ZM68.0727 77.5013C68.2047 77.6519 68.3173 77.8293 68.3993 78.0153C68.4927 78.2259 68.546 78.4473 68.546 78.6506L68.5453 85.8059C68.5447 86.0739 68.4507 86.2619 68.3 86.3499L67.688 86.7046C67.8393 86.6166 67.9333 86.4286 67.934 86.1606L67.9347 79.0053C67.9353 78.8019 67.8813 78.5806 67.788 78.3699C67.706 78.1846 67.5933 78.0066 67.4613 77.8566C67.35 77.7293 67.2247 77.6219 67.0913 77.5453L66.8587 77.4113C66.6247 77.2759 66.412 77.2639 66.2573 77.3539L66.8687 76.9986C67.0227 76.9086 67.236 76.9213 67.47 77.0559L67.7027 77.1899C67.836 77.2666 67.9613 77.3739 68.0727 77.5013Z" fill="white"/>
<path d="M67.956 79.0127L67.904 86.168C67.8986 86.708 67.5193 86.92 67.052 86.6453L66.8206 86.5093C66.3573 86.2373 65.9826 85.5827 65.988 85.0427L66.04 77.8873C66.0453 77.3533 66.4286 77.1387 66.892 77.41L67.1233 77.546C67.5913 77.8207 67.9606 78.4787 67.956 79.0127Z" fill="#0C0C0F"/>
<path d="M87.5827 46.6861C87.126 46.9494 86.7573 47.5887 86.7587 48.1134C86.76 48.6381 87.1313 48.8501 87.588 48.5867C88.0447 48.3234 88.414 47.6841 88.4127 47.1594C88.4113 46.6341 88.0393 46.4221 87.5827 46.6861ZM96.9513 135.843C97.0313 135.827 97.1067 135.819 97.174 135.819C97.3053 135.819 97.4073 135.849 97.458 135.906C97.5333 135.991 97.5333 136.183 97.4587 136.406C97.2307 137.091 96.4073 137.817 95.696 137.96C95.4607 138.007 95.2667 137.983 95.1907 137.897C95.116 137.812 95.1153 137.62 95.19 137.397C95.4213 136.701 96.228 135.989 96.9513 135.843Z" fill="white"/>
<path d="M94.4033 138.593C94.658 138.881 95.038 139.033 95.4793 139.033C95.6153 139.033 95.7573 139.019 95.9033 138.989C96.9866 138.771 98.1073 137.782 98.4546 136.738C98.6526 136.143 98.576 135.587 98.244 135.211C97.9106 134.833 97.3633 134.689 96.744 134.814C95.6613 135.033 94.5413 136.021 94.1933 137.065C93.9946 137.661 94.0713 138.217 94.4033 138.593ZM95.1893 137.397C95.4213 136.701 96.228 135.989 96.9513 135.843C97.0313 135.827 97.1066 135.819 97.174 135.819C97.3053 135.819 97.4073 135.849 97.458 135.906C97.5333 135.991 97.5333 136.183 97.4586 136.406C97.2306 137.091 96.4073 137.817 95.696 137.96C95.4606 138.007 95.2666 137.983 95.1906 137.897C95.1146 137.813 95.1146 137.621 95.1893 137.397Z" fill="#0C0C0F"/>
<path d="M142.583 125.316C143.743 122.5 145.097 119.944 146.681 117.593C149.271 113.749 152.057 111.701 154.967 111.505C155.035 111.5 155.102 111.497 155.169 111.494C156.071 111.459 156.787 111.634 157.297 112.015C158.342 112.798 158.414 114.436 157.879 115.567C157.273 116.848 156.039 117.777 154.911 118.517C153.521 119.429 152.031 120.248 150.591 121.041C148.741 122.059 146.828 123.111 145.082 124.379C144.66 124.686 144.257 125.005 143.871 125.331C140.348 130.111 136.114 136.979 134.671 143.924C134.363 145.407 134.233 146.658 134.197 147.665C135.346 145.032 138.121 141.154 144.808 137.588C146.965 135.66 149.184 134.024 151.511 132.641C155.497 130.275 158.891 129.617 161.606 130.685C161.669 130.709 161.731 130.735 161.793 130.761C162.623 131.115 163.194 131.58 163.492 132.143C164.102 133.297 163.466 134.809 162.498 135.602C161.403 136.501 159.889 136.812 158.555 136.998C156.909 137.227 155.211 137.33 153.569 137.431C151.462 137.559 149.283 137.691 147.162 138.091C146.502 138.216 145.862 138.37 145.243 138.549C145.242 138.549 145.242 138.55 145.241 138.55C145.548 138.607 145.902 138.689 146.309 138.806C148.089 138.883 149.785 139.1 151.425 139.467C154.517 140.158 156.513 141.421 157.363 143.225C157.382 143.266 157.401 143.308 157.419 143.351C157.666 143.916 157.733 144.415 157.617 144.834C157.379 145.694 156.355 146.148 155.502 146.089C154.536 146.022 153.637 145.468 152.886 144.935C151.96 144.277 151.067 143.533 150.204 142.813C149.096 141.889 147.95 140.934 146.708 140.139C146.589 140.063 146.47 139.989 146.351 139.917C144.638 139.38 143.909 139.494 143.874 139.5C143.779 139.521 143.686 139.514 143.599 139.487C139.615 141.903 137.419 144.343 136.223 146.168C134.473 148.839 134.433 150.797 134.432 150.823C134.432 150.833 134.429 150.841 134.429 150.851C134.428 150.869 134.427 150.887 134.423 150.906C134.421 150.923 134.417 150.939 134.413 150.955C134.408 150.971 134.403 150.987 134.397 151.003C134.391 151.019 134.385 151.035 134.377 151.051C134.369 151.065 134.361 151.08 134.353 151.094C134.344 151.109 134.335 151.122 134.325 151.135C134.315 151.149 134.303 151.162 134.292 151.175C134.281 151.187 134.269 151.198 134.257 151.209C134.245 151.22 134.231 151.231 134.217 151.241C134.203 151.251 134.189 151.261 134.175 151.269C134.161 151.278 134.147 151.285 134.131 151.293C134.115 151.301 134.097 151.307 134.079 151.314C134.07 151.317 134.062 151.322 134.053 151.325C134.047 151.326 134.043 151.325 134.037 151.327C134.003 151.335 133.968 151.341 133.932 151.343C133.925 151.343 133.917 151.345 133.91 151.345C133.909 151.345 133.907 151.345 133.906 151.345C133.867 151.345 133.829 151.339 133.793 151.331C133.789 151.33 133.784 151.331 133.779 151.33C133.779 151.33 133.779 151.33 133.779 151.33C133.778 151.33 133.779 151.33 133.778 151.33C133.739 151.32 133.702 151.305 133.667 151.286C133.659 151.282 133.651 151.278 133.643 151.273C133.609 151.253 133.577 151.231 133.548 151.204C133.544 151.201 133.541 151.196 133.537 151.193C133.511 151.167 133.489 151.139 133.469 151.109C133.464 151.102 133.459 151.095 133.455 151.088C133.434 151.053 133.417 151.016 133.405 150.976C133.405 150.973 133.403 150.971 133.401 150.967C133.371 150.865 132.683 148.407 133.618 143.815C135.021 136.946 139.069 130.178 142.583 125.316Z" fill="#0C0C0F"/>
<path d="M154.466 115.792C155.08 115.792 155.577 115.294 155.577 114.681C155.577 114.067 155.08 113.569 154.466 113.569C153.852 113.569 153.355 114.067 153.355 114.681C153.355 115.294 153.852 115.792 154.466 115.792Z" fill="white"/>
<path d="M159.104 135.035C159.718 135.035 160.215 134.537 160.215 133.923C160.215 133.31 159.718 132.812 159.104 132.812C158.49 132.812 157.993 133.31 157.993 133.923C157.993 134.537 158.49 135.035 159.104 135.035Z" fill="white"/>
<path d="M155.121 144.497C155.632 144.497 156.047 144.083 156.047 143.571C156.047 143.06 155.632 142.645 155.121 142.645C154.609 142.645 154.195 143.06 154.195 143.571C154.195 144.083 154.609 144.497 155.121 144.497Z" fill="white"/>
<path d="M55.162 111.307C54.928 111.307 54.7067 111.28 54.4993 111.224C53.8967 111.061 52.9033 110.493 53.0193 108.525C53.3093 103.596 58.4993 96.4172 65.2613 91.4586C64.5427 89.6106 63.224 87.7392 61.0253 85.9772C55.9113 81.8786 51.1 80.8759 46.7253 82.9952C50.388 88.3986 49.3227 92.0766 47.7507 94.2286C46.672 95.7052 45.0013 96.9012 43.0473 97.5952C41.2913 98.2192 39.5113 98.3566 38.2853 97.9632C37.2507 97.6312 36.6513 96.9166 36.642 96.0026C36.6153 93.4026 39.488 86.0819 45.1793 82.6426C42.9727 79.7439 40.6687 78.3819 38.3293 78.5906C32.9333 79.0726 28.8527 87.5926 28.812 87.6786C28.688 87.9406 28.3753 88.0532 28.1133 87.9292C27.8513 87.8052 27.7387 87.4926 27.8627 87.2306C28.0387 86.8572 32.248 78.0799 38.236 77.5446C40.9953 77.2979 43.6413 78.8399 46.1073 82.1292C46.1553 82.1052 46.2027 82.0819 46.2507 82.0586C49.5333 80.4619 54.876 79.7032 61.6813 85.1579C63.782 86.8412 65.274 88.7412 66.142 90.8312C66.1787 90.8059 66.2153 90.7812 66.2513 90.7559C71.4833 87.1699 76.3127 85.8206 79.85 86.9552C80.126 87.0439 80.278 87.3392 80.1893 87.6152C80.1007 87.8912 79.8053 88.0439 79.5293 87.9546C76.3547 86.9359 71.7313 88.2726 66.8447 91.6212C66.7333 91.6972 66.622 91.7746 66.5113 91.8526C66.7053 92.4792 66.8467 93.1212 66.934 93.7786C67.294 96.4866 66.7087 99.4452 65.2413 102.335C62.784 107.177 58.046 111.307 55.162 111.307ZM65.6093 92.5099C59.302 97.2346 54.3327 104.083 54.068 108.587C54.0127 109.523 54.2507 110.069 54.774 110.211C55.6907 110.459 57.4293 109.683 59.202 108.235C61.2307 106.577 63.0913 104.254 64.3073 101.86C65.428 99.6539 66.612 96.1806 65.6093 92.5099ZM45.7973 83.4979C40.474 86.6719 37.6687 93.6399 37.6927 95.9926C37.694 96.1612 37.6993 96.6739 38.6067 96.9646C40.492 97.5699 44.7633 96.5399 46.904 93.6099C48.872 90.9172 48.4873 87.4259 45.7973 83.4979Z" fill="#0C0C0F"/>
<path d="M107.379 48.9653C106.759 48.454 105.974 48.1907 105.101 48.1907C104.72 48.1907 104.323 48.2407 103.915 48.3413C100.944 49.076 98.394 52.2267 98.2307 55.364C98.1533 56.842 98.6213 58.0767 99.548 58.842C100.437 59.5767 101.668 59.798 103.012 59.4653C105.983 58.7307 108.533 55.58 108.696 52.4427C108.773 50.9653 108.305 49.7307 107.379 48.9653Z" fill="white"/>
<path d="M108.086 48.1088C106.918 47.1448 105.343 46.8441 103.647 47.2634C100.236 48.1074 97.308 51.7154 97.1207 55.3068C97.0247 57.1448 97.6353 58.7048 98.84 59.6994C99.664 60.3794 100.691 60.7295 101.819 60.7295C102.29 60.7295 102.779 60.6681 103.278 60.5448C106.689 59.7008 109.617 56.0928 109.805 52.5015C109.901 50.6634 109.291 49.1034 108.086 48.1088ZM108.695 52.4435C108.616 53.9608 107.978 55.4801 107.005 56.7288C106.731 56.0821 106.151 55.1301 105.456 54.4388C106.092 53.7041 106.518 52.7714 106.567 51.8368C106.659 50.0694 105.375 48.9728 103.698 49.3874C102.021 49.8021 100.588 51.5708 100.495 53.3381C100.445 54.3154 100.816 55.0861 101.441 55.5114C100.582 56.6501 99.8007 58.0008 99.4053 58.7161C98.5733 57.9454 98.1573 56.7635 98.23 55.3635C98.3933 52.2261 100.943 49.0761 103.914 48.3408C104.322 48.2401 104.719 48.1901 105.1 48.1901C105.973 48.1901 106.759 48.4528 107.378 48.9648C108.305 49.7308 108.773 50.9655 108.695 52.4435Z" fill="#0C0C0F"/>
<path d="M87.3886 116.145C87.1186 115.925 86.7386 115.8 86.248 115.772C85.7573 115.744 85.1333 115.811 84.3767 115.976C83.7387 116.115 83.2373 116.215 82.8726 116.276C82.5073 116.337 82.2133 116.338 81.99 116.279C81.7666 116.219 81.6453 116.067 81.6253 115.823C81.6033 115.557 81.7286 115.269 82.0006 114.959C82.2726 114.649 82.6246 114.395 83.058 114.197C83.4793 114.004 83.818 113.919 84.0746 113.943C84.3313 113.967 84.5593 114.051 84.7593 114.195C85.004 114.365 85.218 114.479 85.4013 114.536C85.5847 114.593 85.7993 114.565 86.0453 114.453C86.3847 114.298 86.6393 114.093 86.8093 113.839C86.9793 113.584 87.054 113.323 87.032 113.057C87.012 112.813 86.9053 112.603 86.712 112.427C86.5187 112.251 86.248 112.133 85.9006 112.075C85.5533 112.016 85.1273 112.037 84.6226 112.139C84.404 112.183 84.172 112.247 83.9313 112.326L83.8666 111.529C83.83 111.081 83.4253 110.888 82.9626 111.1C82.5 111.312 82.154 111.848 82.1906 112.297L82.2533 113.067C81.7567 113.348 81.32 113.663 80.9453 114.013C80.4067 114.515 80.0113 115.039 79.7586 115.584C79.506 116.129 79.3987 116.635 79.4367 117.1C79.4793 117.622 79.67 117.991 80.0086 118.206C80.3473 118.421 80.7847 118.52 81.32 118.501C81.8553 118.483 82.5433 118.384 83.384 118.205C84.1286 118.04 84.668 117.979 85.002 118.02C85.336 118.061 85.5193 118.286 85.5527 118.695C85.5747 118.961 85.44 119.269 85.15 119.616C84.86 119.964 84.4747 120.247 83.9953 120.467C83.4047 120.737 82.93 120.849 82.5713 120.801C82.2126 120.753 81.8933 120.579 81.614 120.277C81.4733 120.117 81.3313 120.009 81.1873 119.951C81.0433 119.894 80.8453 119.923 80.594 120.038C80.3073 120.169 80.078 120.369 79.906 120.635C79.7333 120.903 79.658 121.164 79.6787 121.419C79.71 121.805 79.8873 122.123 80.2113 122.371C80.5347 122.621 81.014 122.732 81.6486 122.706C82.0573 122.689 82.514 122.595 83.016 122.426L83.0673 123.057C83.104 123.506 83.5086 123.699 83.9713 123.487C84.434 123.275 84.78 122.739 84.7433 122.29L84.6926 121.672C85.248 121.365 85.7366 121.033 86.1553 120.673C86.7646 120.15 87.2113 119.587 87.496 118.983C87.78 118.379 87.8967 117.757 87.844 117.115C87.8107 116.689 87.6586 116.366 87.3886 116.145Z" fill="#0C0C0F"/>
<path d="M70.3946 71.8999C70.3946 71.8999 97.1593 80.2072 102.509 82.2846C107.858 84.3612 116.581 79.4319 121.15 78.5739C125.719 77.7159 133.196 82.8819 139.427 82.7912C145.657 82.7006 142.89 89.3466 133.474 88.1006C124.058 86.8546 120.735 91.5026 120.735 91.5026L123.329 105.003C123.329 105.003 106.271 107.319 99.7953 100.41C93.32 93.5006 70.1093 98.7586 70.1093 98.7586L70.3946 71.8999Z" fill="#0C0C0F"/>
<path d="M149.059 83.3411L106.658 90.4214L109.669 108.45L152.07 101.37L149.059 83.3411Z" fill="white"/>
<path d="M116 108.521L153.348 102.285L149.971 82.064L105.379 89.51L108.755 109.731L115.998 108.522C115.999 108.522 115.999 108.522 115.999 108.522L116 108.521ZM107.671 96.4893C107.696 96.4886 107.721 96.4873 107.747 96.4833C109.948 96.116 111.459 95.2086 112.238 93.788C113.114 92.19 112.808 90.3873 112.542 89.4406L142.519 84.4353C142.904 86.5466 143.799 88.0033 145.185 88.7626C145.983 89.2006 146.832 89.3433 147.601 89.3433C148.682 89.3433 149.6 89.0613 149.991 88.9206L151.056 95.302C148.922 95.682 147.451 96.58 146.687 97.9746C145.811 99.5726 146.117 101.375 146.383 102.322L116.349 107.337C115.929 105.431 115.06 104.105 113.76 103.391C111.658 102.239 109.2 103.133 108.806 103.289L107.671 96.4893ZM147.486 102.137C147.265 101.408 146.935 99.8313 147.66 98.5086C148.254 97.426 149.458 96.7166 151.238 96.3973L152.069 101.372L147.486 102.137ZM149.804 87.806C149.788 87.8113 149.771 87.814 149.755 87.8206C149.733 87.83 147.479 88.758 145.713 87.7846C144.642 87.1946 143.937 86.0053 143.615 84.2513L149.059 83.3426L149.804 87.806ZM111.438 89.6246C111.659 90.354 111.989 91.9313 111.264 93.2533C110.657 94.3606 109.412 95.0786 107.565 95.3873C107.539 95.3913 107.515 95.4 107.491 95.4073L106.659 90.4226L111.438 89.6246ZM108.987 104.376C109.055 104.374 109.123 104.361 109.189 104.333C109.212 104.323 111.449 103.391 113.225 104.366C114.219 104.911 114.899 105.972 115.251 107.52L109.667 108.452L108.987 104.376Z" fill="#0C0C0F"/>
<path d="M130.256 101.859C127.943 101.859 125.776 99.628 125.267 96.582C125.005 95.0113 125.215 93.452 125.858 92.1913C126.529 90.8747 127.591 90.0347 128.845 89.8253C130.1 89.616 131.377 90.066 132.439 91.0927C133.457 92.076 134.163 93.4827 134.425 95.0533C134.977 98.3573 133.371 101.389 130.846 101.81C130.649 101.843 130.453 101.859 130.256 101.859ZM129.444 90.886C129.305 90.886 129.167 90.8973 129.029 90.9207C128.13 91.0707 127.355 91.7013 126.848 92.6953C126.312 93.7453 126.14 95.0607 126.363 96.398C126.814 99.098 128.745 101.033 130.664 100.713C132.585 100.392 133.78 97.9347 133.329 95.2347C133.106 93.8967 132.516 92.7093 131.668 91.89C130.987 91.234 130.211 90.886 129.444 90.886ZM116.587 98.5867C116.32 98.5867 116.085 98.394 116.039 98.1227C115.989 97.82 116.193 97.5333 116.496 97.4833L121.937 96.5747C122.24 96.5233 122.527 96.7287 122.577 97.0313C122.627 97.334 122.423 97.6207 122.12 97.6707L116.679 98.5793C116.648 98.5847 116.617 98.5867 116.587 98.5867ZM137.317 95.1253C137.051 95.1253 136.815 94.9327 136.77 94.6613C136.719 94.3587 136.924 94.072 137.227 94.022L142.668 93.1133C142.97 93.0613 143.257 93.2673 143.307 93.57C143.358 93.8727 143.153 94.1593 142.851 94.2093L137.409 95.118C137.379 95.1227 137.347 95.1253 137.317 95.1253Z" fill="#0C0C0F"/>
<path d="M152.315 84.469L109.461 87.8516L110.899 106.074L153.754 102.691L152.315 84.469Z" fill="white"/>
<path d="M153.335 83.2651L108.266 86.8298L109.883 107.267L154.952 103.702L153.335 83.2651ZM148.009 103.137L117.654 105.538C117.4 103.603 116.65 102.206 115.416 101.384C113.421 100.053 110.895 100.731 110.489 100.854L109.946 93.9805C109.957 93.9811 109.967 93.9838 109.979 93.9838C109.993 93.9838 110.008 93.9831 110.023 93.9818C112.247 93.8058 113.831 93.0331 114.729 91.6845C115.741 90.1685 115.591 88.3458 115.408 87.3798L145.706 84.9838C145.907 87.1205 146.673 88.6491 147.987 89.5251C148.936 90.1578 150.005 90.3365 150.909 90.3365C151.741 90.3365 152.431 90.1858 152.761 90.0985L153.271 96.5478C151.113 96.7425 149.57 97.5098 148.687 98.8331C147.676 100.348 147.825 102.171 148.009 103.137ZM152.672 88.9711C152.655 88.9751 152.639 88.9765 152.623 88.9818C152.599 88.9891 150.274 89.7191 148.598 88.5965C147.582 87.9158 146.983 86.6705 146.813 84.8951L152.315 84.4598L152.672 88.9711ZM114.291 87.4678C114.446 88.2171 114.637 89.8245 113.801 91.0725C113.1 92.1198 111.799 92.7258 109.935 92.8731C109.909 92.8751 109.885 92.8811 109.86 92.8871L109.461 87.8498L114.291 87.4678ZM110.577 101.951C110.644 101.955 110.713 101.948 110.781 101.926C110.804 101.919 113.13 101.189 114.805 102.312C115.746 102.942 116.329 104.056 116.545 105.626L110.903 106.072L110.577 101.951ZM149.126 103.048C148.971 102.299 148.779 100.691 149.615 99.4431C150.301 98.4191 151.561 97.8185 153.359 97.6545L153.756 102.682L149.126 103.048Z" fill="#0C0C0F"/>
<path d="M132.285 101.295C131.121 101.295 130.001 100.74 129.105 99.7105C128.175 98.6425 127.595 97.1805 127.469 95.5932C127.343 94.0058 127.687 92.4698 128.437 91.2698C129.219 90.0165 130.349 89.2712 131.617 89.1712C132.885 89.0692 134.118 89.6292 135.089 90.7438C136.018 91.8118 136.599 93.2738 136.724 94.8612C136.85 96.4485 136.506 97.9845 135.756 99.1845C134.973 100.438 133.843 101.183 132.575 101.283C132.479 101.292 132.382 101.295 132.285 101.295ZM131.904 90.2705C131.838 90.2705 131.772 90.2732 131.706 90.2785C130.798 90.3505 129.972 90.9118 129.38 91.8585C128.755 92.8585 128.47 94.1538 128.577 95.5058C128.685 96.8578 129.169 98.0918 129.943 98.9812C130.677 99.8232 131.579 100.246 132.489 100.176C133.397 100.104 134.223 99.5425 134.815 98.5958C135.439 97.5958 135.725 96.3005 135.617 94.9485C135.51 93.5965 135.025 92.3625 134.251 91.4732C133.571 90.6925 132.745 90.2705 131.904 90.2705ZM118.695 96.8425C118.408 96.8425 118.165 96.6218 118.142 96.3305C118.118 96.0245 118.346 95.7572 118.652 95.7332L124.152 95.2985C124.459 95.2732 124.725 95.5025 124.749 95.8085C124.773 96.1145 124.545 96.3818 124.239 96.4058L118.739 96.8405C118.725 96.8425 118.71 96.8425 118.695 96.8425ZM139.648 95.1858C139.361 95.1858 139.118 94.9652 139.095 94.6738C139.071 94.3678 139.299 94.1005 139.605 94.0765L145.105 93.6418C145.41 93.6165 145.678 93.8458 145.702 94.1518C145.726 94.4578 145.498 94.7252 145.192 94.7492L139.692 95.1838C139.677 95.1852 139.663 95.1858 139.648 95.1858ZM139.427 82.7898C137.105 82.8238 134.611 82.1272 132.157 81.2852L123.329 86.4265C123.755 86.4605 133.019 88.0385 133.473 88.0992C142.89 89.3452 145.657 82.6992 139.427 82.7898Z" fill="#0C0C0F"/>
<path d="M132.768 107.334C131.903 107.359 131.166 106.685 131.15 105.82C131.139 105.203 131.248 104.351 131.609 103.191C132.642 99.8679 134.304 100.036 134.996 101.129C135.648 102.157 138.392 107.174 132.768 107.334Z" fill="#0C0C0F"/>
<path d="M127.161 106.531C127.305 107.025 127.698 107.406 128.196 107.532C129.624 107.893 132.464 108.349 132.097 106.134C131.609 103.191 129.239 98.5113 127.41 100.436C126.029 101.889 126.733 105.063 127.161 106.531Z" fill="#0C0C0F"/>
<path d="M122.861 102.922C122.796 102.323 123.113 101.732 123.666 101.493C124.354 101.195 125.281 101.173 125.858 102.699C126.867 105.366 128.489 107.63 125.858 107.833C123.363 108.027 123.383 107.764 122.861 102.922ZM146.623 104.605C146.824 104.129 144.55 98.714 141.781 100.191C139.523 101.395 140.946 104.585 141.549 105.723C141.709 106.025 141.951 106.273 142.25 106.44C143.189 106.962 145.321 107.696 146.623 104.605Z" fill="#0C0C0F"/>
<path d="M152.762 74.8387C152.049 74.8387 151.385 74.582 150.804 74.0687C149.935 73.3 149.217 71.762 150.74 68.7993C152.267 65.828 155.593 62.3407 159.422 59.6987C159.767 59.4607 160.155 59.2027 160.579 58.9373C160.893 55.3927 160.679 50.9907 159.147 46.072C157.667 41.3227 154.763 39.2587 150.513 39.938C149.813 40.05 149.1 40.232 148.382 40.474C148.683 41.2013 148.895 41.9393 149.019 42.686C149.388 44.9113 148.969 47.1693 147.773 49.396C146.371 52.0093 143.857 54.5333 140.876 56.3207C138.125 57.9707 135.376 58.7413 133.702 58.334C132.547 58.0527 131.901 57.246 131.883 56.0633C131.847 53.6447 134.238 49.7287 137.975 46.086C140.877 43.258 144.007 41.1133 146.944 39.898C146.296 38.6987 145.337 37.4607 143.981 36.206C139.86 32.3947 135.891 30.832 132.185 31.562C125.933 32.7933 122.421 40.2047 122.386 40.2793C122.264 40.542 121.951 40.656 121.689 40.534C121.426 40.412 121.311 40.1 121.433 39.8373C121.584 39.5127 125.199 31.872 131.977 30.5327C136.033 29.7313 140.311 31.3807 144.693 35.4347C146.107 36.7427 147.191 38.1093 147.934 39.5207C148.761 39.2333 149.569 39.0247 150.347 38.9007C153.677 38.368 158.081 39.1253 160.149 45.7587C161.505 50.1113 161.908 54.4 161.659 58.2913C164.26 56.816 167.719 55.4127 170.695 56.0947C170.978 56.1593 171.155 56.4413 171.089 56.7233C171.025 57.006 170.743 57.182 170.461 57.118C168.192 56.5973 165.007 57.486 161.553 59.5687C160.833 66.5913 157.999 72.1333 154.955 74.104C154.199 74.5947 153.458 74.8387 152.762 74.8387ZM160.431 60.2827C160.294 60.374 160.157 60.4673 160.019 60.5627C156.38 63.074 153.105 66.4953 151.674 69.2793C151.004 70.584 150.429 72.3373 151.499 73.2827C152.283 73.976 153.255 73.956 154.385 73.2247C156.599 71.7913 158.735 67.9847 159.825 63.528C160.057 62.576 160.272 61.4887 160.431 60.2827ZM147.396 40.8427C140.211 43.782 132.876 52.222 132.933 56.048C132.944 56.746 133.267 57.148 133.951 57.3147C136.745 57.9953 143.927 54.3427 146.849 48.9C147.964 46.8213 148.708 43.9933 147.396 40.8427ZM93.618 70.2467C93.402 70.2467 93.1966 70.12 93.1066 69.9087C92.9866 69.6267 93.118 69.3 93.4 69.18L108.873 62.592C109.155 62.472 109.482 62.6033 109.602 62.8853C109.722 63.1673 109.591 63.494 109.309 63.614L93.8353 70.202C93.7646 70.2327 93.6906 70.2467 93.618 70.2467ZM97.6666 73.0433C97.4506 73.0433 97.2453 72.9167 97.1553 72.7053C97.0353 72.4233 97.1666 72.0967 97.4486 71.9767L108.873 67.1127C109.154 66.9927 109.481 67.124 109.601 67.406C109.721 67.688 109.59 68.0147 109.308 68.1347L97.884 72.9987C97.8133 73.0287 97.7393 73.0433 97.6666 73.0433Z" fill="#0C0C0F"/>
<path d="M79.2214 110.986L89.894 106.134V120.495C89.894 121.745 89.144 122.873 87.9914 123.357L77.3927 128.622V113.826C77.3927 112.603 78.1074 111.492 79.2214 110.986Z" stroke="#0C0C0F" stroke-width="6" stroke-miterlimit="10" stroke-linecap="round" stroke-linejoin="round"/>
<path d="M120.688 139.873C115.844 139.809 111.171 140.915 107.529 142.987C103.919 145.041 101.728 147.815 101.327 150.82L101.326 150.821L100.998 154.676C100.959 154.893 100.929 155.111 100.907 155.331C100.585 158.655 102.859 161.755 106.303 164.061C109.581 166.255 114.08 167.377 118.973 167.377C124.356 167.377 128.225 165.949 131.919 163.847C135.801 161.638 137.561 159.147 137.883 155.823C137.905 155.604 137.917 155.385 137.92 155.167L137.975 151.665C137.967 151.631 137.957 151.599 137.947 151.566C138.127 149.403 137.356 147.29 135.709 145.451C132.656 142.042 127.041 139.956 120.688 139.873ZM104.385 146.883C104.449 146.809 104.512 146.736 104.578 146.664C104.512 146.737 104.449 146.809 104.385 146.883ZM104.749 146.482C104.816 146.411 104.884 146.341 104.955 146.271C104.885 146.341 104.817 146.411 104.749 146.482ZM103.735 147.721C103.791 147.641 103.846 147.56 103.905 147.481C103.846 147.56 103.791 147.641 103.735 147.721ZM105.554 145.713C105.63 145.646 105.708 145.58 105.786 145.515C105.708 145.581 105.631 145.646 105.554 145.713ZM135.783 147.384C135.791 147.396 135.799 147.407 135.806 147.419C135.799 147.407 135.791 147.396 135.783 147.384ZM114.621 141.555C114.752 141.527 114.883 141.501 115.016 141.476C114.883 141.502 114.752 141.528 114.621 141.555ZM115.343 141.416C115.477 141.392 115.611 141.369 115.746 141.347C115.611 141.369 115.477 141.392 115.343 141.416ZM116.077 141.295C116.213 141.275 116.351 141.256 116.488 141.237C116.351 141.255 116.213 141.275 116.077 141.295ZM119.625 140.991C119.453 140.995 119.28 140.999 119.109 141.006C119.281 140.999 119.453 140.995 119.625 140.991ZM112.905 141.971C112.778 142.007 112.653 142.044 112.527 142.081C112.652 142.043 112.777 142.007 112.905 141.971ZM111.57 142.385C111.441 142.429 111.315 142.476 111.189 142.522C111.315 142.476 111.441 142.429 111.57 142.385ZM110.926 142.617C110.789 142.668 110.655 142.722 110.521 142.776C110.655 142.722 110.789 142.669 110.926 142.617ZM110.3 142.864C110.115 142.94 109.933 143.019 109.753 143.099C109.933 143.019 110.115 142.94 110.3 142.864ZM105.993 145.345C106.074 145.281 106.157 145.217 106.24 145.153C106.157 145.217 106.075 145.281 105.993 145.345ZM107.451 144.315C107.549 144.255 107.649 144.195 107.749 144.135C107.649 144.195 107.549 144.255 107.451 144.315ZM107.981 143.997C108.087 143.936 108.196 143.877 108.305 143.817C108.197 143.877 108.088 143.936 107.981 143.997ZM108.533 143.693C108.655 143.628 108.779 143.565 108.903 143.503C108.779 143.565 108.654 143.628 108.533 143.693ZM136.271 148.288C136.263 148.271 136.255 148.254 136.247 148.237C136.255 148.254 136.263 148.271 136.271 148.288ZM136.441 148.695C136.44 148.693 136.439 148.692 136.439 148.69C136.439 148.692 136.44 148.694 136.441 148.695ZM135.557 147.044C135.533 147.009 135.507 146.973 135.481 146.938C135.507 146.973 135.533 147.008 135.557 147.044ZM135.273 146.661C135.245 146.626 135.218 146.591 135.189 146.555C135.218 146.591 135.245 146.626 135.273 146.661Z" fill="#0C0C0F"/>
<path d="M134.883 146.193C132.033 143.011 126.721 141.063 120.673 140.984C112.001 140.87 104.425 144.665 102.726 149.697C102.561 150.187 102.451 150.688 102.401 151.199C102.219 153.081 102.894 154.936 104.354 156.566C107.204 159.748 112.516 161.695 118.563 161.775C128.079 161.9 136.276 157.32 136.835 151.559C137.017 149.678 136.342 147.822 134.883 146.193Z" fill="white"/>
<path d="M130.458 147.585C128.475 145.37 124.617 143.96 120.39 143.904C114.243 143.823 108.876 146.494 107.68 150.034C107.565 150.376 107.488 150.726 107.453 151.082C107.327 152.385 107.797 153.673 108.813 154.808C110.797 157.023 114.655 158.433 118.881 158.489C125.622 158.577 131.425 155.359 131.817 151.31C131.944 150.007 131.474 148.719 130.458 147.585Z" fill="white"/>
<path d="M120.405 142.793C116.906 142.747 113.528 143.547 110.895 145.045C108.184 146.588 106.569 148.693 106.348 150.975C106.191 152.595 106.757 154.177 107.986 155.549C110.203 158.025 114.271 159.539 118.867 159.599C122.366 159.645 125.744 158.845 128.377 157.347C130.57 156.099 132.046 154.483 132.647 152.703C132.789 152.283 132.882 151.853 132.924 151.417C133.081 149.797 132.515 148.215 131.286 146.843C129.068 144.367 125 142.853 120.405 142.793ZM118.881 158.489C114.655 158.433 110.797 157.023 108.813 154.808C107.797 153.673 107.327 152.385 107.453 151.082C107.488 150.725 107.565 150.376 107.68 150.034C108.875 146.494 114.243 143.823 120.39 143.904C124.617 143.959 128.475 145.37 130.458 147.585C131.474 148.719 131.944 150.007 131.818 151.311C131.425 155.359 125.622 158.577 118.881 158.489Z" fill="#0C0C0F"/>
<path d="M124.031 130.247C119.187 130.183 114.515 131.289 110.873 133.361C107.263 135.415 105.071 138.189 104.67 141.194L104.669 141.195L104.341 145.05C104.303 145.267 104.272 145.485 104.251 145.705C103.928 149.029 106.203 152.129 109.647 154.435C112.924 156.629 117.423 157.751 122.317 157.751C127.699 157.751 131.569 156.323 135.263 154.221C139.145 152.012 140.904 149.521 141.227 146.197C141.248 145.977 141.26 145.759 141.263 145.541L141.319 142.039C141.31 142.005 141.3 141.973 141.29 141.94C141.471 139.777 140.699 137.664 139.053 135.825C136 132.415 130.384 130.33 124.031 130.247ZM107.729 137.257C107.792 137.183 107.855 137.11 107.921 137.038C107.855 137.111 107.792 137.183 107.729 137.257ZM106.79 138.542C106.844 138.453 106.897 138.364 106.955 138.276C106.897 138.364 106.843 138.453 106.79 138.542ZM107.391 137.669C107.45 137.593 107.509 137.517 107.571 137.441C107.509 137.517 107.45 137.593 107.391 137.669ZM108.483 136.466C108.555 136.397 108.627 136.329 108.701 136.262C108.627 136.329 108.555 136.397 108.483 136.466ZM108.898 136.087C108.974 136.02 109.052 135.954 109.13 135.889C109.051 135.954 108.974 136.02 108.898 136.087ZM139.127 137.758C139.135 137.77 139.143 137.781 139.15 137.793C139.143 137.781 139.135 137.769 139.127 137.758ZM120.165 131.567C120.305 131.55 120.445 131.535 120.587 131.52C120.446 131.535 120.305 131.55 120.165 131.567ZM117.965 131.929C118.095 131.901 118.227 131.875 118.359 131.85C118.227 131.876 118.095 131.902 117.965 131.929ZM119.421 131.669C119.557 131.648 119.695 131.629 119.832 131.611C119.694 131.629 119.557 131.649 119.421 131.669ZM121.357 131.448C121.211 131.459 121.064 131.471 120.919 131.485C121.064 131.471 121.21 131.459 121.357 131.448ZM117.641 131.998C117.511 132.027 117.383 132.056 117.255 132.087C117.383 132.056 117.512 132.026 117.641 131.998ZM116.937 132.163C116.809 132.195 116.683 132.228 116.557 132.261C116.683 132.228 116.81 132.195 116.937 132.163ZM116.248 132.345C116.121 132.38 115.996 132.417 115.871 132.455C115.996 132.417 116.121 132.381 116.248 132.345ZM114.27 132.991C114.133 133.042 113.999 133.096 113.865 133.15C113.999 133.096 114.133 133.043 114.27 132.991ZM113.034 133.499C112.835 133.589 112.639 133.681 112.447 133.775C112.639 133.681 112.835 133.589 113.034 133.499ZM110.795 134.689C110.893 134.629 110.993 134.569 111.093 134.509C110.993 134.569 110.893 134.629 110.795 134.689ZM106.689 138.706C106.621 138.824 106.559 138.943 106.497 139.063C106.559 138.944 106.621 138.825 106.689 138.706ZM139.614 138.662C139.606 138.645 139.599 138.628 139.591 138.611C139.599 138.627 139.606 138.645 139.614 138.662ZM138.901 137.417C138.877 137.382 138.851 137.347 138.825 137.311C138.851 137.347 138.876 137.382 138.901 137.417ZM138.617 137.035C138.589 136.999 138.562 136.964 138.533 136.929C138.562 136.964 138.589 137 138.617 137.035Z" fill="#0C0C0F"/>
<path d="M138.226 136.567C135.376 133.385 130.064 131.438 124.017 131.358C115.345 131.244 107.769 135.04 106.069 140.071C105.904 140.561 105.794 141.062 105.745 141.574C105.562 143.455 106.237 145.31 107.697 146.94C110.547 150.122 115.859 152.07 121.907 152.149C131.423 152.274 139.619 147.694 140.179 141.934C140.361 140.052 139.686 138.196 138.226 136.567Z" fill="white"/>
<path d="M133.801 137.958C131.818 135.743 127.96 134.333 123.733 134.277C117.587 134.197 112.219 136.867 111.023 140.407C110.908 140.749 110.831 141.099 110.797 141.455C110.67 142.759 111.141 144.047 112.157 145.181C114.14 147.396 117.998 148.806 122.225 148.862C128.965 148.951 134.769 145.732 135.161 141.683C135.288 140.381 134.817 139.093 133.801 137.958Z" fill="white"/>
<path d="M123.748 133.167C120.249 133.121 116.871 133.921 114.238 135.419C111.527 136.962 109.913 139.067 109.691 141.349C109.534 142.969 110.101 144.551 111.329 145.923C113.547 148.399 117.615 149.913 122.211 149.973C125.709 150.019 129.087 149.219 131.721 147.721C133.913 146.473 135.389 144.857 135.99 143.077C136.132 142.657 136.225 142.227 136.267 141.791C136.425 140.171 135.858 138.589 134.629 137.217C132.411 134.741 128.344 133.227 123.748 133.167ZM122.225 148.863C117.999 148.807 114.141 147.397 112.157 145.182C111.141 144.047 110.671 142.759 110.797 141.456C110.832 141.099 110.909 140.75 111.024 140.408C112.219 136.868 117.587 134.197 123.734 134.278C127.961 134.333 131.819 135.744 133.802 137.959C134.818 139.093 135.288 140.381 135.162 141.685C134.769 145.733 128.965 148.951 122.225 148.863Z" fill="#0C0C0F"/>
<path d="M121.093 123.561C116.249 123.497 111.576 124.603 107.934 126.675C104.324 128.729 102.133 131.503 101.731 134.508L101.731 134.509L101.403 138.364C101.364 138.581 101.333 138.799 101.312 139.019C100.989 142.343 103.264 145.443 106.708 147.749C109.985 149.943 114.485 151.065 119.378 151.065C124.761 151.065 128.63 149.637 132.324 147.535C136.206 145.326 137.965 142.835 138.288 139.511C138.309 139.291 138.321 139.073 138.325 138.855L138.38 135.353C138.371 135.319 138.361 135.287 138.351 135.254C138.532 133.091 137.761 130.978 136.114 129.139C133.061 125.73 127.445 123.645 121.093 123.561ZM104.79 130.571C104.853 130.498 104.917 130.425 104.983 130.353C104.917 130.425 104.853 130.498 104.79 130.571ZM103.851 131.857C103.905 131.768 103.959 131.679 104.016 131.591C103.958 131.678 103.905 131.767 103.851 131.857ZM104.453 130.984C104.512 130.908 104.571 130.831 104.633 130.756C104.571 130.831 104.511 130.907 104.453 130.984ZM105.959 129.401C106.035 129.335 106.113 129.269 106.191 129.203C106.113 129.269 106.035 129.335 105.959 129.401ZM136.449 131.517C136.452 131.523 136.455 131.529 136.458 131.535C136.455 131.529 136.452 131.523 136.449 131.517ZM117.226 124.881C117.366 124.864 117.507 124.849 117.648 124.834C117.507 124.849 117.366 124.865 117.226 124.881ZM115.026 125.243C115.157 125.216 115.288 125.19 115.421 125.165C115.289 125.19 115.157 125.216 115.026 125.243ZM116.482 124.983C116.619 124.963 116.756 124.944 116.893 124.925C116.755 124.944 116.618 124.963 116.482 124.983ZM121.078 124.672C120.815 124.669 120.553 124.669 120.293 124.673C120.553 124.669 120.815 124.669 121.078 124.672ZM119.206 124.711C119.051 124.719 118.897 124.727 118.743 124.737C118.897 124.726 119.051 124.719 119.206 124.711ZM118.418 124.762C118.272 124.773 118.125 124.785 117.98 124.799C118.125 124.785 118.271 124.774 118.418 124.762ZM114.703 125.312C114.573 125.341 114.444 125.37 114.316 125.401C114.445 125.37 114.573 125.341 114.703 125.312ZM113.999 125.477C113.871 125.509 113.744 125.543 113.618 125.576C113.744 125.542 113.871 125.509 113.999 125.477ZM111.975 126.074C111.846 126.118 111.72 126.165 111.593 126.211C111.72 126.164 111.846 126.118 111.975 126.074ZM110.705 126.552C110.52 126.628 110.337 126.707 110.157 126.787C110.337 126.707 110.52 126.629 110.705 126.552ZM110.095 126.814C109.896 126.903 109.701 126.995 109.508 127.09C109.701 126.995 109.897 126.903 110.095 126.814ZM106.862 128.678C106.948 128.615 107.035 128.553 107.123 128.491C107.035 128.553 106.948 128.615 106.862 128.678ZM107.348 128.335C107.439 128.273 107.533 128.212 107.626 128.152C107.533 128.213 107.439 128.273 107.348 128.335ZM107.857 128.004C107.954 127.943 108.054 127.883 108.154 127.824C108.054 127.883 107.954 127.943 107.857 128.004ZM108.937 127.381C109.059 127.316 109.184 127.253 109.308 127.191C109.184 127.254 109.059 127.316 108.937 127.381ZM136.675 131.976C136.667 131.959 136.66 131.942 136.652 131.925C136.66 131.942 136.668 131.959 136.675 131.976ZM136.845 132.384C136.845 132.382 136.844 132.381 136.843 132.379C136.844 132.38 136.845 132.382 136.845 132.384ZM135.963 130.732C135.938 130.697 135.913 130.661 135.887 130.626C135.912 130.661 135.937 130.697 135.963 130.732Z" fill="#0C0C0F"/>
<path d="M135.287 129.881C132.437 126.699 127.125 124.752 121.078 124.672C112.406 124.558 104.83 128.354 103.131 133.385C102.965 133.875 102.855 134.376 102.806 134.888C102.623 136.769 103.299 138.624 104.759 140.254C107.609 143.436 112.921 145.384 118.968 145.463C128.484 145.588 136.681 141.008 137.24 135.248C137.422 133.366 136.747 131.511 135.287 129.881Z" fill="white"/>
<path d="M130.863 131.273C128.879 129.058 125.021 127.648 120.795 127.592C114.648 127.511 109.281 130.182 108.085 133.722C107.969 134.064 107.893 134.414 107.858 134.77C107.731 136.073 108.202 137.361 109.218 138.496C111.201 140.711 115.059 142.121 119.286 142.177C126.027 142.265 131.83 139.047 132.222 134.998C132.349 133.695 131.879 132.407 130.863 131.273Z" fill="white"/>
<path d="M120.809 126.481C117.311 126.435 113.933 127.235 111.299 128.734C108.589 130.277 106.974 132.382 106.753 134.663C106.595 136.284 107.162 137.866 108.391 139.238C110.608 141.713 114.676 143.228 119.272 143.288C122.771 143.334 126.149 142.534 128.782 141.035C130.975 139.787 132.451 138.171 133.051 136.391C133.193 135.971 133.287 135.542 133.329 135.106C133.486 133.485 132.919 131.903 131.691 130.531C129.473 128.056 125.405 126.541 120.809 126.481ZM119.287 142.177C115.06 142.121 111.202 140.711 109.219 138.497C108.203 137.362 107.733 136.074 107.859 134.771C107.893 134.414 107.97 134.065 108.085 133.723C109.281 130.183 114.648 127.511 120.795 127.593C125.022 127.648 128.88 129.059 130.863 131.273C131.879 132.407 132.349 133.696 132.223 134.999C131.83 139.047 126.027 142.266 119.287 142.177Z" fill="#0C0C0F"/>
</svg>
